<svg width="17" height="17" viewBox="0 0 17 17" fill="none" xmlns="http://www.w3.org/2000/svg">
<path d="M5.80502 1.35049V3.37625" stroke="#787486" stroke-width="1.3" stroke-miterlimit="10" stroke-linecap="round" stroke-linejoin="round"/>
<path d="M11.1439 1.35049V3.37625" stroke="#787486" stroke-width="1.3" stroke-miterlimit="10" stroke-linecap="round" stroke-linejoin="round"/>
<path d="M11.1439 2.36337C13.3662 2.48492 14.4807 3.34249 14.4807 6.51616V10.6892C14.4807 13.4712 13.8134 14.8623 10.4765 14.8623H6.47237C3.13556 14.8623 2.4682 13.4712 2.4682 10.6892V6.51616C2.4682 3.34249 3.5827 2.49167 5.80501 2.36337H11.1439Z" stroke="#787486" stroke-width="1.3" stroke-miterlimit="10" stroke-linecap="round" stroke-linejoin="round"/>
<path d="M14.3139 11.8844H2.63504" stroke="#787486" stroke-width="1.3" stroke-miterlimit="10" stroke-linecap="round" stroke-linejoin="round"/>
<path d="M8.47447 5.57082C7.65361 5.57082 6.95955 6.02323 6.95955 6.90106C6.95955 7.31971 7.15309 7.63708 7.44673 7.83966C7.03964 8.08275 6.80606 8.47439 6.80606 8.93356C6.80606 9.77087 7.44005 10.2908 8.47447 10.2908C9.5022 10.2908 10.1429 9.77087 10.1429 8.93356C10.1429 8.47439 9.90929 8.07599 9.49553 7.83966C9.79584 7.63033 9.9827 7.31971 9.9827 6.90106C9.9827 6.02323 9.29532 5.57082 8.47447 5.57082ZM8.47447 7.48853C8.12744 7.48853 7.87384 7.2792 7.87384 6.94833C7.87384 6.6107 8.12744 6.41488 8.47447 6.41488C8.82149 6.41488 9.07509 6.6107 9.07509 6.94833C9.07509 7.2792 8.82149 7.48853 8.47447 7.48853ZM8.47447 9.45351C8.03401 9.45351 7.71367 9.23067 7.71367 8.82552C7.71367 8.42037 8.03401 8.20429 8.47447 8.20429C8.91492 8.20429 9.23526 8.42712 9.23526 8.82552C9.23526 9.23067 8.91492 9.45351 8.47447 9.45351Z" fill="#787486"/>
</svg>
