<svg width="17" height="17" viewBox="0 0 17 17" fill="none" xmlns="http://www.w3.org/2000/svg">
<path d="M14.3765 8.25583V12.2558C14.3765 14.9225 13.7098 15.5892 11.0431 15.5892H4.37647C1.7098 15.5892 1.04314 14.9225 1.04314 12.2558V5.58916C1.04314 2.9225 1.7098 2.25583 4.37647 2.25583H5.37647C6.37647 2.25583 6.59647 2.54916 6.97647 3.05583L7.97647 4.38916C8.2298 4.7225 8.37647 4.9225 9.04314 4.9225H11.0431C13.7098 4.9225 14.3765 5.58916 14.3765 8.25583Z" stroke="#787486" stroke-miterlimit="10"/>
<path d="M5.37639 2.25583H11.3764C12.7097 2.25583 13.3764 2.9225 13.3764 4.25583V5.17583" stroke="#787486" stroke-miterlimit="10" stroke-linecap="round" stroke-linejoin="round"/>
<path d="M9.37639 10.9225H6.04306" stroke="#787486" stroke-miterlimit="10" stroke-linecap="round" stroke-linejoin="round"/>
</svg>
