<svg width="16" height="16" viewBox="0 0 16 16" fill="none" xmlns="http://www.w3.org/2000/svg">
<path d="M14.3334 7.33334V11.3333C14.3334 14 13.6667 14.6667 11.0001 14.6667H4.33339C1.66673 14.6667 1.00006 14 1.00006 11.3333V4.66668C1.00006 2.00001 1.66673 1.33334 4.33339 1.33334H5.33339C6.33339 1.33334 6.55339 1.62668 6.93339 2.13334L7.93339 3.46668C8.18673 3.80001 8.33339 4.00001 9.00006 4.00001H11.0001C13.6667 4.00001 14.3334 4.66668 14.3334 7.33334Z" stroke="#787486" stroke-miterlimit="10"/>
<path d="M5.33331 1.33334H11.3333C12.6666 1.33334 13.3333 2.00001 13.3333 3.33334V4.25334" stroke="#787486" stroke-miterlimit="10" stroke-linecap="round" stroke-linejoin="round"/>
<path d="M9.33333 10H6" stroke="#787486" stroke-miterlimit="10" stroke-linecap="round" stroke-linejoin="round"/>
</svg>
