<svg width="16" height="16" viewBox="0 0 16 16" fill="none" xmlns="http://www.w3.org/2000/svg">
<path d="M8 15.2067C7.54 15.2067 7.10667 14.9733 6.8 14.5667L5.8 13.2333C5.78 13.2067 5.7 13.1733 5.66667 13.1667H5.33334C2.55334 13.1667 0.833336 12.4133 0.833336 8.66668V5.33334C0.833336 2.38668 2.38667 0.833344 5.33334 0.833344H10.6667C13.6133 0.833344 15.1667 2.38668 15.1667 5.33334V8.66668C15.1667 11.6133 13.6133 13.1667 10.6667 13.1667H10.3333C10.28 13.1667 10.2333 13.1933 10.2 13.2333L9.2 14.5667C8.89334 14.9733 8.46 15.2067 8 15.2067ZM5.33334 1.83334C2.94667 1.83334 1.83334 2.94668 1.83334 5.33334V8.66668C1.83334 11.68 2.86667 12.1667 5.33334 12.1667H5.66667C6.00667 12.1667 6.39334 12.36 6.6 12.6333L7.6 13.9667C7.83334 14.2733 8.16667 14.2733 8.4 13.9667L9.4 12.6333C9.62 12.34 9.96667 12.1667 10.3333 12.1667H10.6667C13.0533 12.1667 14.1667 11.0533 14.1667 8.66668V5.33334C14.1667 2.94668 13.0533 1.83334 10.6667 1.83334H5.33334Z" fill="#787486"/>
<path d="M8 7.99999C7.62667 7.99999 7.33334 7.69999 7.33334 7.33332C7.33334 6.96666 7.63334 6.66666 8 6.66666C8.36667 6.66666 8.66667 6.96666 8.66667 7.33332C8.66667 7.69999 8.37334 7.99999 8 7.99999Z" fill="#787486"/>
<path d="M10.6667 7.99999C10.2933 7.99999 10 7.69999 10 7.33332C10 6.96666 10.3 6.66666 10.6667 6.66666C11.0333 6.66666 11.3333 6.96666 11.3333 7.33332C11.3333 7.69999 11.04 7.99999 10.6667 7.99999Z" fill="#787486"/>
<path d="M5.33333 7.99999C4.96 7.99999 4.66666 7.69999 4.66666 7.33332C4.66666 6.96666 4.96666 6.66666 5.33333 6.66666C5.7 6.66666 6 6.96666 6 7.33332C6 7.69999 5.70666 7.99999 5.33333 7.99999Z" fill="#787486"/>
</svg>
