<svg width="16" height="16" viewBox="0 0 16 16" fill="none" xmlns="http://www.w3.org/2000/svg">
<path d="M8 15.2066C7.54 15.2066 7.10667 14.9733 6.8 14.5666L5.8 13.2333C5.78 13.2066 5.7 13.1733 5.66667 13.1666H5.33334C2.55334 13.1666 0.833336 12.4133 0.833336 8.66665V5.33331C0.833336 2.38665 2.38667 0.833313 5.33334 0.833313H10.6667C13.6133 0.833313 15.1667 2.38665 15.1667 5.33331V8.66665C15.1667 11.6133 13.6133 13.1666 10.6667 13.1666H10.3333C10.28 13.1666 10.2333 13.1933 10.2 13.2333L9.2 14.5666C8.89334 14.9733 8.46 15.2066 8 15.2066ZM5.33334 1.83331C2.94667 1.83331 1.83334 2.94665 1.83334 5.33331V8.66665C1.83334 11.68 2.86667 12.1666 5.33334 12.1666H5.66667C6.00667 12.1666 6.39334 12.36 6.6 12.6333L7.6 13.9666C7.83334 14.2733 8.16667 14.2733 8.4 13.9666L9.4 12.6333C9.62 12.34 9.96667 12.1666 10.3333 12.1666H10.6667C13.0533 12.1666 14.1667 11.0533 14.1667 8.66665V5.33331C14.1667 2.94665 13.0533 1.83331 10.6667 1.83331H5.33334Z" fill="#787486"/>
<path d="M8 8.00002C7.62667 8.00002 7.33334 7.70002 7.33334 7.33335C7.33334 6.96669 7.63334 6.66669 8 6.66669C8.36667 6.66669 8.66667 6.96669 8.66667 7.33335C8.66667 7.70002 8.37334 8.00002 8 8.00002Z" fill="#787486"/>
<path d="M10.6667 8.00002C10.2933 8.00002 10 7.70002 10 7.33335C10 6.96669 10.3 6.66669 10.6667 6.66669C11.0333 6.66669 11.3333 6.96669 11.3333 7.33335C11.3333 7.70002 11.04 8.00002 10.6667 8.00002Z" fill="#787486"/>
<path d="M5.33333 8.00002C4.96 8.00002 4.66666 7.70002 4.66666 7.33335C4.66666 6.96669 4.96666 6.66669 5.33333 6.66669C5.7 6.66669 6 6.96669 6 7.33335C6 7.70002 5.70666 8.00002 5.33333 8.00002Z" fill="#787486"/>
</svg>
