<svg width="16" height="16" viewBox="0 0 16 16" fill="none" xmlns="http://www.w3.org/2000/svg">
<path d="M8.00001 15.2067C7.54001 15.2067 7.10668 14.9733 6.80001 14.5667L5.80001 13.2333C5.78001 13.2067 5.70001 13.1733 5.66668 13.1667H5.33334C2.55334 13.1667 0.833344 12.4133 0.833344 8.66666V5.33333C0.833344 2.38666 2.38668 0.833328 5.33334 0.833328H10.6667C13.6133 0.833328 15.1667 2.38666 15.1667 5.33333V8.66666C15.1667 11.6133 13.6133 13.1667 10.6667 13.1667H10.3333C10.28 13.1667 10.2333 13.1933 10.2 13.2333L9.20001 14.5667C8.89334 14.9733 8.46001 15.2067 8.00001 15.2067ZM5.33334 1.83333C2.94668 1.83333 1.83334 2.94666 1.83334 5.33333V8.66666C1.83334 11.68 2.86668 12.1667 5.33334 12.1667H5.66668C6.00668 12.1667 6.39334 12.36 6.60001 12.6333L7.60001 13.9667C7.83334 14.2733 8.16668 14.2733 8.40001 13.9667L9.40001 12.6333C9.62001 12.34 9.96668 12.1667 10.3333 12.1667H10.6667C13.0533 12.1667 14.1667 11.0533 14.1667 8.66666V5.33333C14.1667 2.94666 13.0533 1.83333 10.6667 1.83333H5.33334Z" fill="#787486"/>
<path d="M8.00001 8.00001C7.62668 8.00001 7.33334 7.70001 7.33334 7.33334C7.33334 6.96667 7.63334 6.66667 8.00001 6.66667C8.36668 6.66667 8.66668 6.96667 8.66668 7.33334C8.66668 7.70001 8.37334 8.00001 8.00001 8.00001Z" fill="#787486"/>
<path d="M10.6667 8.00001C10.2933 8.00001 10 7.70001 10 7.33334C10 6.96667 10.3 6.66667 10.6667 6.66667C11.0333 6.66667 11.3333 6.96667 11.3333 7.33334C11.3333 7.70001 11.04 8.00001 10.6667 8.00001Z" fill="#787486"/>
<path d="M5.33332 8.00001C4.95999 8.00001 4.66666 7.70001 4.66666 7.33334C4.66666 6.96667 4.96666 6.66667 5.33332 6.66667C5.69999 6.66667 5.99999 6.96667 5.99999 7.33334C5.99999 7.70001 5.70666 8.00001 5.33332 8.00001Z" fill="#787486"/>
</svg>
