<svg width="17" height="17" viewBox="0 0 17 17" fill="none" xmlns="http://www.w3.org/2000/svg">
<path d="M8.04307 16.1292C7.58307 16.1292 7.14974 15.8958 6.84307 15.4892L5.84307 14.1558C5.82307 14.1292 5.74307 14.0958 5.70974 14.0892H5.3764C2.5964 14.0892 0.876404 13.3358 0.876404 9.58916V6.25583C0.876404 3.30916 2.42974 1.75583 5.3764 1.75583H10.7097C13.6564 1.75583 15.2097 3.30916 15.2097 6.25583V9.58916C15.2097 12.5358 13.6564 14.0892 10.7097 14.0892H10.3764C10.3231 14.0892 10.2764 14.1158 10.2431 14.1558L9.24307 15.4892C8.9364 15.8958 8.50307 16.1292 8.04307 16.1292ZM5.3764 2.75583C2.98974 2.75583 1.8764 3.86916 1.8764 6.25583V9.58916C1.8764 12.6025 2.90974 13.0892 5.3764 13.0892H5.70974C6.04974 13.0892 6.4364 13.2825 6.64307 13.5558L7.64307 14.8892C7.8764 15.1958 8.20974 15.1958 8.44307 14.8892L9.44307 13.5558C9.66307 13.2625 10.0097 13.0892 10.3764 13.0892H10.7097C13.0964 13.0892 14.2097 11.9758 14.2097 9.58916V6.25583C14.2097 3.86916 13.0964 2.75583 10.7097 2.75583H5.3764Z" fill="#787486"/>
<path d="M8.04307 8.92251C7.66974 8.92251 7.3764 8.62251 7.3764 8.25584C7.3764 7.88917 7.6764 7.58917 8.04307 7.58917C8.40974 7.58917 8.70974 7.88917 8.70974 8.25584C8.70974 8.62251 8.4164 8.92251 8.04307 8.92251Z" fill="#787486"/>
<path d="M10.7097 8.92251C10.3364 8.92251 10.0431 8.62251 10.0431 8.25584C10.0431 7.88917 10.3431 7.58917 10.7097 7.58917C11.0764 7.58917 11.3764 7.88917 11.3764 8.25584C11.3764 8.62251 11.0831 8.92251 10.7097 8.92251Z" fill="#787486"/>
<path d="M5.37638 8.92251C5.00305 8.92251 4.70972 8.62251 4.70972 8.25584C4.70972 7.88917 5.00972 7.58917 5.37638 7.58917C5.74305 7.58917 6.04305 7.88917 6.04305 8.25584C6.04305 8.62251 5.74972 8.92251 5.37638 8.92251Z" fill="#787486"/>
</svg>
