<svg width="16" height="16" viewBox="0 0 16 16" fill="none" xmlns="http://www.w3.org/2000/svg">
<path d="M8 15.2067C7.54 15.2067 7.10667 14.9733 6.8 14.5667L5.8 13.2333C5.78 13.2067 5.7 13.1733 5.66667 13.1667H5.33334C2.55334 13.1667 0.833336 12.4133 0.833336 8.66666V5.33333C0.833336 2.38666 2.38667 0.833328 5.33334 0.833328H10.6667C13.6133 0.833328 15.1667 2.38666 15.1667 5.33333V8.66666C15.1667 11.6133 13.6133 13.1667 10.6667 13.1667H10.3333C10.28 13.1667 10.2333 13.1933 10.2 13.2333L9.2 14.5667C8.89334 14.9733 8.46 15.2067 8 15.2067ZM5.33334 1.83333C2.94667 1.83333 1.83334 2.94666 1.83334 5.33333V8.66666C1.83334 11.68 2.86667 12.1667 5.33334 12.1667H5.66667C6.00667 12.1667 6.39334 12.36 6.6 12.6333L7.6 13.9667C7.83334 14.2733 8.16667 14.2733 8.4 13.9667L9.4 12.6333C9.62 12.34 9.96667 12.1667 10.3333 12.1667H10.6667C13.0533 12.1667 14.1667 11.0533 14.1667 8.66666V5.33333C14.1667 2.94666 13.0533 1.83333 10.6667 1.83333H5.33334Z" fill="#787486"/>
<path d="M8 8.00001C7.62667 8.00001 7.33334 7.70001 7.33334 7.33334C7.33334 6.96667 7.63334 6.66667 8 6.66667C8.36667 6.66667 8.66667 6.96667 8.66667 7.33334C8.66667 7.70001 8.37334 8.00001 8 8.00001Z" fill="#787486"/>
<path d="M10.6667 8.00001C10.2933 8.00001 10 7.70001 10 7.33334C10 6.96667 10.3 6.66667 10.6667 6.66667C11.0333 6.66667 11.3333 6.96667 11.3333 7.33334C11.3333 7.70001 11.04 8.00001 10.6667 8.00001Z" fill="#787486"/>
<path d="M5.33333 8.00001C4.96 8.00001 4.66666 7.70001 4.66666 7.33334C4.66666 6.96667 4.96666 6.66667 5.33333 6.66667C5.7 6.66667 6 6.96667 6 7.33334C6 7.70001 5.70666 8.00001 5.33333 8.00001Z" fill="#787486"/>
</svg>
