<svg width="16" height="16" viewBox="0 0 16 16" fill="none" xmlns="http://www.w3.org/2000/svg">
<path d="M14.3334 7.33333V11.3333C14.3334 14 13.6667 14.6667 11.0001 14.6667H4.33339C1.66673 14.6667 1.00006 14 1.00006 11.3333V4.66666C1.00006 1.99999 1.66673 1.33333 4.33339 1.33333H5.33339C6.33339 1.33333 6.55339 1.62666 6.93339 2.13333L7.93339 3.46666C8.18673 3.79999 8.33339 3.99999 9.00006 3.99999H11.0001C13.6667 3.99999 14.3334 4.66666 14.3334 7.33333Z" stroke="#787486" stroke-miterlimit="10"/>
<path d="M5.33331 1.33333H11.3333C12.6666 1.33333 13.3333 1.99999 13.3333 3.33333V4.25333" stroke="#787486" stroke-miterlimit="10" stroke-linecap="round" stroke-linejoin="round"/>
<path d="M9.33333 10H6" stroke="#787486" stroke-miterlimit="10" stroke-linecap="round" stroke-linejoin="round"/>
</svg>
